<svg xmlns="http://www.w3.org/2000/svg" width="947.93963" height="1005.39669" viewBox="0 0 947.93963 1005.39669" stroke="none" stroke-linecap="round" stroke-linejoin="round" fill="#fff" fill-rule="nonzero">
    <path d="M547.00515 434.14305c2.9929-.3019 5.879-.175 8.4809 1.514 2.2242 1.443 3.657 3.6391 4.0481 6.268.55 3.7001-.788 6.5951-2.851 9.56-1.4681.8161-3.002 1.477-4.533 2.1611-4.045.702-6.7529-.6741-10.11-2.6621q-.447-.8459-.858-1.7089c-1.359-2.871-1.876-6.047-.7051-9.09 1.2041-3.134 3.604-4.69 6.5281-6.0421z" fill="#4f4f4f"/>
    <path d="M368.38311 160.11812c-2.424-1.014-4.4579-2.102-6.019-4.292q-.278-.392-.516-.81-.238-.418-.432-.858-.195-.44-.344-.897-.15-.457-.253-.926-.103-.47-.158-.948-.056-.477-.063-.958-.007-.481.033-.96.041-.479.13-.952.094-.499.238-.987.143-.487.335-.958.192-.47.429-.919.238-.449.519-.872.282-.423.604-.816.323-.393.683-.751.36-.359.754-.68.3941-.32.818-.6c2.667-1.759 5.4461-2.057 8.5141-1.43 3.271 1.765 5.6339 3.513 6.646 7.257.6899 2.554.3549 5.236-1.011 7.514-1.4311 2.389-4.0931 4.289-6.8521 4.77-1.3149.229-2.725.126-4.055.073z" fill="#646464"/>
    <path d="M723.14114 813.25512c1.901-.175 3.873-.359 5.741.146 2.841.768 5.4331 2.736 6.7409 5.391q.2122.426.3811.87.168.445.2901.905.1219.46.197.929.0749.47.1019.945.026.475.005.95-.022.475-.091.946-.07.47-.1871.931-.1169.461-.2799.908c-1.25 3.421-3.752 5.212-6.961 6.634-1.6179.345-3.511.364-5.125-.008-2.594-.598-4.7649-2.329-6.075-4.632q-.274-.482-.495-.99-.222-.508-.389-1.036-.167-.528-.2781-1.071-.1108-.543-.1649-1.095-.0541-.551-.049-1.106.004-.554.066-1.104.062-.551.1821-1.092.1189-.541.2949-1.067c1.0449-3.149 3.276-4.84 6.095-6.354zm.62696 39.94094l2.219-.086c2.925.0411 6.1471 1.047 8.1531 3.271 1.1789 1.308 1.682 2.711 1.9949 4.4181 1.2231 6.6649.5051 14.4249.444 21.2069l-.089 24.576c6.9181 1.9361 12.977 4.247 18.8791 8.4151q.9959.7099 1.956 1.4669.96.758 1.882 1.5621.922.804 1.8029 1.653.8801.849 1.719 1.7389.8381.891 1.631 1.822.793.931 1.5391 1.901.746.969 1.444 1.9731.698 1.005 1.3449 2.042.6481 1.0379 1.2431 2.1069.5959 1.068 1.1379 2.1641.542 1.0969 1.0291 2.218.488 1.1219.9199 2.2669.4311 1.144.8061 2.308.375 1.1651.6919 2.346.317 1.1811.575 2.377.259 1.195.458 2.402.1951 1.21.332 2.429.136 1.2181.213 2.441.078 1.224.0951 2.45.018 1.2251-.024 2.451-.0421 1.2251-.1441 2.4461-.1009 1.2219-.2619 2.4369-.161 1.216-.38 2.422-.22 1.2061-.4971 2.4-.278 1.1941-.614 2.373-.335 1.179-.7279 2.34-.392 1.162-.84 2.303-.448 1.141-.9521 2.2591-.503 1.1179-1.06 2.2099-.557 1.0921-1.1659 2.156-.6091 1.0641-1.269 2.096-.66 1.0331-1.3701 2.0331c-9.583 13.221-22.3159 18.221-37.9259 20.721-8.828.63-19.1071-2.3301-26.7901-6.5901-11.0589-6.14-19.917-17.083-23.3319-29.292q-.357-1.2349-.6521-2.487-.2949-1.2509-.526-2.5159-.23-1.2651-.397-2.5391-.1669-1.275-.2689-2.557-.102-1.281-.1391-2.567-.0369-1.2849-.0089-2.57.0279-1.2859.1209-2.568.093-1.282.25-2.558.158-1.276.38-2.543.2221-1.266.507-2.5199.2861-1.253.635-2.4911.348-1.237.759-2.455.411-1.219.8831-2.415.4719-1.196 1.0039-2.3659.531-1.1711 1.1221-2.3131.5899-1.142 1.237-2.253c7.529-13.0639 18.6079-19.165 32.7549-23.024-.092-12.632-1.5439-37.093.667-48.1829 1.99-2.4921 3.552-4.2361 6.605-5.3091z" fill="#4f4f4f"/>
    <path d="M721.46221 926.1991c7.0869-.7 13.5659-.05 19.8399 3.56q.6381.369 1.256.768.619.4 1.217.83.5979.431 1.173.89.5761.46 1.1281.948.552.487 1.079 1.002.5269.515 1.0269 1.055.501.54.974 1.105.4731.565.917 1.152.444.588.859 1.197.4141.609.797 1.238.3841.629.735 1.276.3521.647.6701 1.311.3189.664.604 1.343.285.68.536 1.372.2509.693.467 1.397.216.704.397 1.418.1799.715.324 1.439.145.723.2529 1.452.1091.73.181 1.464.073.734.109 1.47.037.737.037 1.475 0 .737-.036 1.474-.037.736-.1089 1.471-.073.734-.1811 1.463-.1089.73-.253 1.453-.144.723-.3239 1.438-.1801.716-.3941 1.421-.2149.706-.464 1.4-.25.694-.5331 1.375-.2829.681-.5988 1.348-.3161.666-.6651 1.316-.349.65-.729 1.282c-4.56 7.513-11.446 11.613-19.8399 13.683q-.6651.124-1.3361.218-.6699.094-1.344.157-.6739.063-1.35.096-.676.032-1.3519.034-.677.002-1.354-.028-.676-.029-1.3501-.089-.6739-.06-1.345-.151-.671-.091-1.3359-.212-.666-.121-1.3261-.273-.66-.151-1.312-.332-.6519-.182-1.295-.393-.643-.211-1.2759-.451-.633-.24-1.2541-.508-.6209-.269-1.23-.566-.6079-.296-1.2019-.62-.594-.324-1.1731-.675-.625-.383-1.23-.797-.604-.414-1.188-.857-.584-.443-1.145-.915-.561-.471-1.0979-.97-.5371-.499-1.0481-1.023-.512-.525-.997-1.075-.4849-.549-.942-1.122-.457-.573-.885-1.167-.4289-.595-.8269-1.21-.3981-.615-.7651-1.25-.367-.634-.7029-1.285-.3351-.652-.6381-1.319-.3029-.668-.572-1.349-.2689-.682-.504-1.376-.236-.694-.436-1.399-.201-.705-.366-1.419-.167-.719-.298-1.445-.131-.726-.2259-1.457-.095-.732-.1541-1.467-.059-.736-.082-1.473-.023-.738-.01-1.475.014-.738.063-1.474.05-.736.1361-1.469.0849-.733.2069-1.46.122-.728.279-1.449.157-.72.3501-1.433.1929-.712.4199-1.414.2271-.702.4891-1.391.2619-.69.5568-1.366.2952-.676.6231-1.337.3281-.661.688-1.305.3611-.644.7521-1.269c4.7099-7.407 11.583-11.358 19.932-13.276z" fill="#fc5d3f"/>
    <path d="M595.21116 433.84914c8.208-.4301 16.885-.26 25.107-.001 11.474.362 22.9131 4.6189 30.79 13.195 12.7739 13.908 11.574 30.0709 11.4199 47.676-.0689 7.8649.177 15.7009-.114 23.567 7.1641 1.958 13.1502 4.243 19.229 8.596 9.573 6.8539 17.5381 18.3349 19.449 30.0639 16.8372.6031 33.8461-.132 50.7131.1241 1.429-5.562 3.387-10.846 6.302-15.8081 7.291-12.4099 18.4739-19.412 32.2859-22.9209 12.115-3.0771 26.1641.2559 36.6421 6.6989q1.0239.6351 2.0149 1.3201.9921.6849 1.948 1.418.957.733 1.8761 1.5119.9191.779 1.798 1.6031.88.8239 1.717 1.69.8379.8659 1.632 1.7719.794.9061 1.542 1.8511.749.9439 1.4491 1.924.7009.9809 1.3529 1.9939.651 1.0141 1.252 2.0581.601 1.045 1.149 2.118.549 1.073 1.0439 2.171.4942 1.099.9341 2.221.4399 1.121.8249 2.263.3841 1.1419.7111 2.302.327 1.16.5971 2.334c2.8529 12.388 1.0729 26.203-5.7801 37.019-6.8511 10.8109-17.824 19.923-30.4961 22.75-13.6729 3.051-27.334.867-39.114-6.7521q-1.0289-.6649-2.0249-1.3789-.9951-.714-1.9551-1.476-.959-.7621-1.8798-1.5701-.9201-.8079-1.8011-1.661-.8801-.852-1.717-1.7459-.8369-.8951-1.63-1.8291-.792-.9339-1.538-1.9059-.7461-.973-1.4431-1.9801-.6969-1.0069-1.344-2.0479-.647-1.0401-1.2419-2.1111-.595-1.0709-1.137-2.1699-.542-1.0981-1.03-2.222-.4871-1.124-.919-2.271-.4321-1.146-.8071-2.3131-.376-1.1659-.6929-2.349-.3181-1.183-.577-2.381-7.571-.278-15.113.4471c-.5341 11.255-.07 22.7179-.008 33.9939l-.136 57.195c42.855.8661 85.826-.951 128.6719.044 12.6381.294 23.3091 4.331 32.0331 13.6371 5.2059 5.5529 8.1859 11.599 9.922 19 2.343 9.985 1.2319 21.106 1.2991 31.3159.0778 11.7471.4459 23.6631.1169 35.393 4.739 1.261 9.4351 2.818 13.731 5.211q1.0959.6061 2.16 1.2671 1.063.66 2.0929 1.373 1.029.713 2.0211 1.477.9931.763 1.9459 1.5759.9521.8121 1.8631 1.672.911.859 1.7781 1.763.8659.904 1.6859 1.8501.821.946 1.592 1.932.772.9859 1.493 2.0099.721 1.0241 1.3899 2.0821.6691 1.059 1.2841 2.1489.615 1.0911 1.1749 2.211.5591 1.1211 1.062 2.2681.5031 1.1459.9471 2.317.445 1.1709.83 2.362.385 1.1919.71 2.401.3059 1.157.5549 2.3269.25 1.1701.4422 2.351.1928 1.1811.3278 2.37.136 1.1891.2142 2.383.0769 1.1941.0969 2.3901.021 1.197-.017 2.393-.0379 1.1959-.133 2.388-.096 1.193-.2489 2.38-.1531 1.187-.3631 2.365-.2099 1.1779-.4761 2.3439-.2669 1.1661-.5899 2.3191-.323 1.152-.7011 2.287-.3779 1.135-.8099 2.2509-.432 1.1161-.9181 2.209-.4858 1.0941-1.0239 2.1631-.538 1.0679-1.127 2.1099-.6411 1.1141-1.337 2.195-.695 1.081-1.444 2.125-.749 1.045-1.5491 2.0511-.8 1.005-1.6489 1.9699-.8501.9651-1.7461 1.886-.896.921-1.8379 1.796-.941.875-1.925 1.7021-.984.8269-2.0081 1.6029-1.0239.7771-2.0859 1.5021-1.061.724-2.157 1.395-1.097.6709-2.2251 1.2859-1.1289.6151-2.2869 1.1731-1.158.557-2.342 1.057-1.1841.4989-2.3921.938-1.208.44-2.4359.8189-1.228.3781-2.474.695c-12.1211 3.1391-26.108.6701-36.785-5.711q-1.071-.643-2.1081-1.339-1.0368-.6959-2.0379-1.4429-1.0021-.7471-1.964-1.543-.963-.796-1.885-1.6391-.922-.843-1.8011-1.7299-.8779-.888-1.7119-1.8191-.833-.93-1.6191-1.901-.7859-.9709-1.522-1.9799-.7369-1.009-1.4219-2.053-.686-1.0451-1.3181-2.122-.6319-1.0771-1.2099-2.185-.578-1.107-1.1-2.242-.5221-1.135-.986-2.294-.4651-1.16-.8711-2.341-.4069-1.181-.7539-2.381-.347-1.2-.633-2.416-.2849-1.1821-.51-2.378-.226-1.195-.392-2.4001-.166-1.2049-.2721-2.4159-.105-1.2121-.1509-2.427-.046-1.216-.031-2.432.0149-1.216.09-2.43.076-1.2141.211-2.4231.1351-1.208.331-2.4089.1949-1.2001.4491-2.3901.2549-1.1889.5678-2.3639.314-1.176.6851-2.3341.371-1.1579.8001-2.2959.4279-1.1391.9118-2.254.4851-1.116 1.0241-2.206.5389-1.0901 1.1319-2.1531.5921-1.062 1.2371-2.093.662-1.0699 1.3769-2.1059.7161-1.036 1.4821-2.034.766-.9991 1.5809-1.958.8151-.959 1.677-1.8761.8621-.917 1.7691-1.789.907-.873 1.8569-1.6989.9491-.826 1.9391-1.603.99-.778 2.017-1.505 1.0271-.7271 2.09-1.401 1.0621-.6751 2.157-1.296 1.095-.62 2.22-1.185 1.125-.565 2.276-1.073 1.152-.508 2.327-.9571 1.1761-.4499 2.3731-.8399 1.1959-.39 2.4109-.7201 1.2141-.3289 2.4441-.5979c.5129-16.555.2839-33.216.2329-49.7821-.026-8.532-.0091-16.651-6.648-22.987-3.043-2.9049-6.7461-5.1559-10.931-5.855-7.777-1.2999-16.5861-.4519-24.489-.3159-6.8261.118-13.693-.0951-20.529-.0511-24.706.1611-49.429-.3259-74.134-.0919-4.833.046-9.646.568-14.4761.659l-.249 7.8079c-.6029 6.4941-.137 13.164-.1749 19.6871l.0089 45.755c.0161 7.229.9631 15.6469-.6559 22.653-.598 2.586-2.171 4.8089-4.53 6.0849-3.428 1.854-6.807 1.1441-10.349.211q-1.126-1.1839-2.167-2.443c-1.801-2.213-2.207-4.432-2.4719-7.2069-.989-10.395.1079-22.9621.0299-33.606l-.037-39.6241c.015-6.685-.458-13.276.176-19.9519-10.5901-.253-21.2561.0719-31.853.0739l-92.271-.2089c-7.5901-.0901-15.99 1.0559-21.5591 6.7589-2.8498 2.919-4.3699 6.4041-5.2119 10.351-1.723 8.076-.886 17.214-.8821 25.471q-.0909 18.2551.1751 36.5071c3.515 1.0739 7.046 2.2179 10.403 3.724q1.0989.4879 2.1719 1.031 1.073.542 2.1171 1.136 1.045.5949 2.0589 1.2409 1.0152.645 1.9952 1.3401.9809.6959 1.927 1.4379.9449.7431 1.8519 1.5321.907.7889 1.775 1.621.867.833 1.6919 1.708.8241.8739 1.6051 1.789.7799.914 1.515 1.8659.7339.9521 1.4199 1.9391.6861.9879 1.323 2.008.636 1.02 1.2211 2.07.585 1.0499 1.1181 2.128.5319 1.078 1.0109 2.181.4781 1.1029.9009 2.2279c4.5341 12.006 4.584 25.8251-.772 37.584q-.5258 1.1711-1.1099 2.3141-.584 1.1439-1.224 2.2559-.6399 1.1131-1.335 2.193-.6941 1.0801-1.441 2.1241-.748 1.044-1.5461 2.049-.7979 1.005-1.646 1.9699-.8469.964-1.7409 1.886-.8941.921-1.833 1.796-.939.8761-1.92 1.704-.981.828-2.003 1.606-1.021.7781-2.079 1.5041-1.0591.727-2.1521 1.399-1.093.6729-2.219 1.291-1.125.618-2.2799 1.1789-1.155.5611-2.336 1.0641-1.181.502-2.386.9459c-12.08 4.4651-25.7959 3.3351-37.3831-2q-1.1089-.523-2.1909-1.0999-1.0811-.576-2.1331-1.2051-1.0529-.6289-2.073-1.309-1.02-.68-2.0048-1.409-.9861-.729-1.9341-1.5049-.949-.7771-1.8579-1.5991-.9091-.8219-1.7771-1.688-.868-.8659-1.6919-1.773-.8241-.907-1.6031-1.8539-.779-.947-1.5109-1.9301-.7311-.9839-1.4131-2.0019-.683-1.0191-1.314-2.0691-.6321-1.0509-1.2109-2.1309-.5791-1.081-1.1051-2.188-.5251-1.1081-.996-2.239-.471-1.1321-.885-2.286-.418-1.136-.7791-2.292-.3609-1.156-.6639-2.329-.303-1.172-.547-2.3581-.245-1.1859-.4299-2.3829-.1851-1.196-.3101-2.401-.126-1.204-.191-2.4131-.0651-1.209-.07-2.42-.005-1.211.0501-2.4209.0549-1.21.1699-2.4151.116-1.205.291-2.4039.1751-1.198.4099-2.386.2341-1.188.5271-2.3631.294-1.175.645-2.3329.351-1.1591.76-2.299.409-1.14.873-2.258.4649-1.1181.985-2.2121c7.14-14.9809 18.869-22.456 33.987-27.88 1.8799-6.3299.718-12.649.761-19.1269l.0149-38.1051c.0911-11.039 5.2711-22.5899 13.165-30.2489 6.1061-5.9251 13.5262-9.439 21.8382-11.0031 6.1599-1.159 12.6949-.7489 18.9449-.75l27.6129.039 90.4601.0371-.1881-50.6831c.0901-13.3849.927-27.341-.2319-40.6349-5.007-.138-9.886-.4961-14.913-.3761-1.5741 5.464-3.457 10.6581-6.267 15.6221-6.4589 11.4119-17.585 18.9119-30.106 22.2509q-1.186.315-2.386.5711-1.2001.256-2.411.451-1.212.195-2.4309.3289-1.2201.1351-2.4451.2071-1.225.073-2.4509.0849-1.2271.0111-2.4532-.039-1.2259-.0509-2.448-.162-1.2219-.112-2.437-.2849-1.2149-.172-2.4189-.406-1.2051-.234-2.396-.5271-1.1909-.2939-2.367-.6469-1.175-.3531-2.331-.764-1.156-.4121-2.2891-.8811-1.1339-.469-2.2429-.9939-1.109-.525-2.1899-1.1051-1.0811-.5799-2.1321-1.214-1.0349-.6179-2.038-1.2849-1.003-.667-1.973-1.382-.969-.716-1.9031-1.4781-.9328-.761-1.8288-1.568-.8951-.8059-1.75-1.6549-.8551-.849-1.6681-1.739-.812-.889-1.581-1.8171-.768-.9279-1.49-1.893-.722-.964-1.396-1.9629-.675-.999-1.3-2.0291-.624-1.0299-1.198-2.089-.574-1.06-1.0959-2.146-.521-1.086-.9891-2.1959-.468-1.1111-.882-2.242-.413-1.1321-.771-2.2831-.3579-1.1499-.659-2.3169c-3.1521-12.4721-1.7041-26.9071 5.058-38.0221 7.626-12.5369 18.9459-19.914 32.97-23.268-1.3209-13.3109 1.984-36.4789-1.026-47.9709-7.46-28.48-41.8049-8.759-58.901-19.091l-.609-.375c-1.2281-2.5411-2.169-4.8431-2.183-7.707-.01-2.2171.67-4.1271 2.2589-5.701 3.6631-3.631 8.4451-3.582 13.2131-3.643z" fill="#4f4f4f"/>
    <path d="M648.1611 537.72412c7.355-.526 13.7471.239 20.146 4.331q.607.391 1.1951.81.5879.42 1.1539.867.5671.448 1.111.922.5441.475 1.0651.976.5199.5 1.016 1.025.495.526.9639 1.075.47.548.912 1.119.4421.571.856 1.163.4141.591.7991 1.203.384.611.739 1.24.354.629.678 1.274.323.646.6149 1.307.2911.66.5511 1.334.259.674.485 1.36.2259.685.419 1.381.1919.696.3509 1.401.163.73.289 1.468.126.737.2151 1.48.09.742.142 1.489.053.746.068 1.494.016.748-.0061 1.496-.022.748-.0799 1.493-.0591.746-.155 1.488-.0961.742-.228 1.479-.1321.736-.3011 1.465-.1689.728-.374 1.448-.204.72-.445 1.428-.24.709-.5149 1.404-.2751.696-.584 1.377-.3091.682-.6521 1.347-.343.665-.718 1.312-.375.647-.782 1.275c-4.4749 6.839-11.2219 10.878-19.0999 12.594-7.1271 1.193-14.305.202-20.586-3.506q-.64-.379-1.26-.79-.621-.411-1.219-.853-.599-.441-1.175-.912-.5761-.472-1.127-.971-.552-.5-1.0771-1.026-.526-.527-1.0239-1.079-.499-.553-.969-1.13-.4701-.576-.9101-1.176-.441-.6-.8499-1.221-.41-.621-.7881-1.262-.3779-.641-.7229-1.3-.3451-.659-.657-1.335-.312-.675-.5891-1.366-.277-.69-.519-1.394-.2429-.703-.449-1.418-.207-.715-.3769-1.439-.1711-.727-.3061-1.463-.1349-.735-.233-1.476-.0979-.741-.1589-1.486-.0601-.745-.0831-1.492-.0239-.747-.009-1.494.0141-.747.065-1.493.052-.745.1411-1.487.089-.742.2149-1.479.125-.737.288-1.466.1631-.73.3621-1.45.1989-.721.4329-1.43.235-.71.505-1.407.2701-.697.575-1.379.3041-.683.6431-1.349.3379-.666.7089-1.315.3721-.649.7751-1.278c4.899-7.495 11.9579-11.461 20.5479-13.203zm-94.26797 249.55594c7.034-.102 14.121 2.224 19.576 6.687q.5699.471 1.1161.969.5459.499 1.0669 1.024.52.525 1.015 1.075.494.55.9601 1.124.4659.574.9029 1.1711.438.5959.845 1.2129.407.617.7831 1.254.376.637.7209 1.2911.344.6549.6551 1.3249.311.671.5888 1.356.2781.685.5221 1.3841.2431.698.4521 1.4069.2089.7101.3819 1.428.173.719.311 1.446.137.726.2389 1.4591.1011.7319.1661 1.4689.061.7181.086 1.439.026.72.017 1.4411-.0091.721-.054 1.44-.0439.7199-.122 1.4359-.0789.717-.1929 1.429-.1131.711-.261 1.417-.1471.706-.3291 1.4031-.182.698-.397 1.3859-.2151.688-.463 1.3641-.2479.677-.5289 1.341-.281.664-.593 1.3139-.313.649-.656 1.283-.344.634-.7181 1.25-.373.616-.7771 1.214-.4029.597-.8339 1.175-.4319.577-.8909 1.133c-5.739 6.9121-13.1231 9.837-21.8731 10.619-7.005-.0659-13.456-1.821-19.0581-6.1939q-.573-.4461-1.1219-.9211-.5499-.474-1.0761-.974-.5249-.5009-1.0258-1.0269-.5-.526-.9731-1.0761-.474-.55-.92-1.123-.4461-.573-.863-1.167-.417-.594-.804-1.208-.387-.614-.7429-1.247-.3571-.6319-.6812-1.282-.3249-.6489-.6169-1.313-.292-.665-.551-1.343-.259-.6779-.4839-1.3679-.2251-.6911-.416-1.391-.1911-.7001-.3471-1.409-.156-.7091-.276-1.4251-.121-.716-.206-1.4369-.0931-.7441-.148-1.492-.0549-.7481-.072-1.4971-.017-.75.003-1.5.021-.749.08-1.497.0581-.747.155-1.491.096-.7439.229-1.4809.1341-.7381.305-1.4681.1711-.731.378-1.451.208-.721.4511-1.4299.2439-.7091.5229-1.4051.2791-.696.593-1.377.314-.681.662-1.345.348-.664.729-1.31.382-.646.7951-1.271.4129-.626.8569-1.23.4451-.6039.9189-1.185c5.6761-6.92 13.2381-9.947 21.9891-10.831zm343.11299.02407c7.2309-.0551 14.1531 1.972 19.8191 6.538q.5688.462 1.114.952.5459.49 1.0659 1.006.52.516 1.0139 1.057.4942.542.9611 1.107.467.565.905 1.153.438.587.8461 1.196.4089.6079.7869 1.236.377.628.7241 1.274.3459.646.6589 1.309.314.662.595 1.34.28.677.5271 1.367.2458.69.458 1.392.2129.701.3899 1.412.177.712.3181 1.4309.1418.719.2479 1.4441.105.725.1749 1.4549.0741.729.1111 1.461.038.7321.0391 1.4641.0019.733-.0331 1.465-.035.7319-.1061 1.4609-.0709.7301-.177 1.4551-.1069.7249-.25 1.443-.1418.719-.3198 1.43-.1781.711-.3901 1.4119-.2129.7021-.46 1.3911-.2471.69-.527 1.3669-.281.677-.5951 1.3391-.3139.662-.6599 1.308-.3459.646-.724 1.274-.377.6279-.785 1.237-.4089.608-.846 1.1959-.4379.5881-.904 1.1531c-5.601 6.752-13.021 9.824-21.578 10.593-6.902.098-13.428-1.662-18.981-5.859q-.589-.448-1.156-.924-.567-.4761-1.109-.98-.542-.5041-1.058-1.034-.516-.531-1.0059-1.086-.4891-.5561-.95-1.135-.4611-.579-.8931-1.18-.432-.601-.833-1.223-.401-.6221-.771-1.263-.37-.641-.707-1.3-.338-.659-.642-1.334-.304-.675-.5741-1.364-.271-.6891-.5058-1.391-.2361-.701-.4361-1.414-.1999-.7121-.3649-1.434-.1651-.722-.293-1.451-.1292-.729-.2211-1.4631-.0909-.7329-.145-1.4699-.0551-.737-.0719-1.476-.0181-.738.001-1.477.0189-.739.0749-1.4751.0559-.737.1489-1.4699.0921-.7331.2211-1.461.1281-.7281.293-1.448.165-.7201.3651-1.4311.2009-.711.4359-1.4119.236-.7001.506-1.388.27-.688.573-1.361.3039-.674.6411-1.3311.3369-.6579.7059-1.2979.37-.6401.7699-1.261.4012-.6211.8321-1.221.431-.6.8911-1.178c5.615-7.057 13.0679-10.1831 21.8579-11.125z" fill="#71c2e7"/>
    <path d="M796.73708 537.71316c6.9631-.789 13.969.5919 19.8801 4.4309q.622.4051 1.2239.841.6011.436 1.18.901.579.466 1.1341.9601.5539.4939 1.084 1.0149.5289.5211 1.031 1.0681.503.5459.9769 1.1179.4751.571.92 1.1661.4461.594.861 1.2099.4141.616.7981 1.252.384.636.735 1.2911.3509.6539.6689 1.325.318.6709.6021 1.3579.284.686.5329 1.386.25.6991.4631 1.411.2139.711.392 1.432.178.721.32 1.45.141.727.245 1.46.105.733.173 1.47.068.738.0999 1.477.031.74.0271 1.48-.0051.741-.0471 1.4801-.041.7389-.1189 1.4759-.0781.736-.1921 1.467-.115.732-.2649 1.457-.15.7251-.336 1.442-.186.716-.4071 1.423-.221.707-.4769 1.402-.2551.694-.545 1.376-.2901.6811-.6131 1.347-.323.6671-.6779 1.316-.3561.65-.7431 1.2811-.3869.6309-.8049 1.242c-4.8311 7.013-11.64 10.724-19.822 12.367-6.974.9149-14.1141-.3421-20.1231-4.0891q-.6329-.396-1.2449-.824-.612-.4279-1.2011-.8859-.5899-.4581-1.1559-.9451-.5661-.487-1.1061-1.0029-.541-.5151-1.0539-1.0571-.514-.5419-1-1.109-.485-.567-.9421-1.158-.4559-.591-.8819-1.204-.426-.6129-.8211-1.247-.394-.6339-.7559-1.287-.363-.653-.6911-1.3239-.329-.6701-.6229-1.3561-.2941-.687-.5531-1.387-.26-.7-.4829-1.4129-.224-.7121-.411-1.435-.187-.7231-.338-1.4541-.149-.727-.262-1.4599-.113-.7331-.19-1.4701-.0771-.7379-.117-1.479-.0401-.74-.0441-1.482-.0039-.7409.0291-1.482.0319-.741.101-1.4799.0689-.7381.175-1.4721.1049-.7339.2459-1.462.1421-.729.3191-1.4489.177-.7201.3889-1.4311.2121-.71.459-1.4099.2471-.6991.5281-1.3851.281-.687.595-1.358.3149-.672.662-1.328.347-.655.7259-1.292.379-.638.7891-1.256c4.947-7.343 12.144-11.1779 20.6809-12.7039z" fill="#fc5d3f"/>
    <path d="M376.2022 114.30414c2.062-7.521 6.853-14.133 11.015-20.653 17.4029-27.2658 37.9079-52.1004 59.561-76.0932 4.173-4.6231 10.412-12.9712 15.746-16.0353 1.886-1.0834 4.791-1.8131 6.9609-1.4104 9.4141 1.7475 59.919 66.6915 67.3511 77.2745 8.9769 12.7842 17.646 26.1063 24.8099 40.0044 14.455 28.0439 19.642 52.129 9.828 82.864-8.9749 28.105-28.921 50.3449-54.9599 63.601-6.291 3.203-12.775 6.2959-19.677 7.927-6.315 1.492-12.916 2.195-19.116 4.0939-.478 7.9831-.081 15.999-.1321 23.9921-.0659 10.498-.5139 21.285.026 31.751 12.1781.509 24.404.428 36.593.4249 3.8791-13.8249 10.412-25.6999 23.352-32.9349q1.1101-.6301 2.2511-1.2031 1.14-.573 2.308-1.0889 1.1669-.516 2.359-.974 1.192-.457 2.4049-.854 1.2131-.397 2.4441-.733 1.2309-.3371 2.478-.611 1.246-.2741 2.5049-.487 1.259-.212 2.5261-.361 1.2679-.149 2.542-.234 1.2729-.086 2.5489-.108 1.276-.0231 2.552.0189 1.276.0411 2.548.1461 1.272.1049 2.5381.2729 1.2649.1691 2.52.4 1.2549.2311 2.4979.5241 1.2421.293 2.4681.648 1.1759.351 2.3339.7589 1.1581.4081 2.2941.8721 1.136.464 2.2479.984 1.1131.5189 2.198 1.0929 1.0851.573 2.141 1.1991 1.0561.627 2.0801 1.304 1.023.677 2.0129 1.404.9891.7269 1.941 1.501.9531.774 1.8661 1.595.9129.8199 1.785 1.684.8719.8639 1.6999 1.7699.828.9061 1.6111 1.8511.783.9459 1.5189 1.928.735.9829 1.4211 2.0009.687 1.0181 1.322 2.0681.636 1.05 1.219 2.1299c6.5549 12.0191 7.436 25.6201 3.4919 38.6311-3.7099 12.2399-12.8779 23.104-24.229 29.021-11.792 6.148-26.0669 7.031-38.672 3.0379-12.121-3.8389-22.7409-13.121-28.5619-24.3609-2.092-4.039-3.6821-8.0231-4.2091-12.564-12.024-.736-24.5599-.255-36.598.23-.812 15.042-.365 30.1859-.363 45.249.002 11.809-.7229 24.021.292 35.7729 9.029.4601 26.26-1.0569 33.8901.7471 2.225.526 4.426 1.552 5.938 3.315 1.761 2.052 2.1899 4.526 1.845 7.152-.295 2.2349-1.2061 4.099-2.2591 6.06-9.199 6.217-27.8469 2.2219-39.1999 3.819-1.6831 13.971-.4761 29.013-.4851 43.1319l-.112 69.2031c13.455 3.3269 24.9771 10.683 32.2801 22.6839q.6529 1.0531 1.252 2.138.5989 1.084 1.1419 2.198.5431 1.1131 1.03 2.253.4861 1.1391.915 2.302.428 1.1621.797 2.3451.3691 1.1829.678 2.383.309 1.2.558 2.413.248 1.214.4341 2.4389.186 1.225.311 2.4581.1239 1.2329.1859 2.4699.062 1.237.062 2.476 0 1.2391-.064 2.477-.063 1.237-.188 2.4701-.125 1.2329-.313 2.4569-.187 1.2251-.4359 2.4391-.2491 1.213-.559 2.413c-3.303 13.199-11.1521 23.7989-22.8271 30.793-11.337 6.791-25.534 8.3389-38.226 5.086-12.073-3.095-23.4659-11.7031-29.767-22.472-6.9589-11.893-8.8559-25.1631-5.292-38.4021 3.527-13.097 11.6701-23.9289 23.552-30.592 4.408-2.4719 9.454-4.1339 14.4051-5.0939l-.395-112.727c-7.8401-.741-15.7791-.2271-23.6501-.302q-28.7119-.212-57.4239.039c-12.8241.003-25.6531-.194-38.4771-.026-4.4749.0579-9.1179-.362-13.551.229-3.953.526-7.6269 2.533-10.6649 5.0699-4.8681 4.0661-7.218 10-7.6721 16.238-.367 5.0531-.0779 10.318-.069 15.3971l-.0399 27.173c13.928 3.697 25.5809 10.9169 32.9199 23.6549 6.9551 12.072 8.6151 25.3531 4.881 38.723q-.3219 1.172-.7009 2.326-.38 1.1551-.8161 2.289-.436 1.1341-.928 2.245-.492 1.1111-1.0379 2.1971-.547 1.085-1.146 2.142-.6001 1.0569-1.2511 2.0829-.651 1.026-1.3519 2.018-.7021.992-1.4511 1.9491-.75.956-1.546 1.8739-.7959.9181-1.637 1.7951-.8409.878-1.724 1.712-.8829.835-1.8059 1.625-.9241.789-1.8851 1.533-.9619.743-1.9589 1.437-.9971.694-2.0281 1.339-1.03.644-2.091 1.2359c-11.58 6.5271-25.9589 7.7901-38.656 4.2-12.43-3.515-23.214-12.5289-29.3539-23.8179-2.4191-4.4471-3.8681-8.633-4.973-13.565-5.0391-.1321-10.005.289-15.0251.2919-.743 20.2151-.471 40.565-.3609 60.7991.0549 10.018.532 20.353-.125 30.333 10.1269.5429 20.3509.13 30.495.169l69.0029-.0221c11.078-.0089 28.59-1.1649 38.8721 1.0431 8.8309 1.896 16.479 5.932 22.526 12.7249q1.6499 1.8451 3.078 3.867 1.428 2.0221 2.615 4.1951 1.187 2.172 2.1169 4.466.929 2.294 1.59 4.6799c2.005 7.49 1.745 14.8901 1.717 22.5591l-.021 28.3399c.006 5.8891-.364 11.6421.3841 17.513 13.8499 3.536 25.1479 11.5351 32.442 23.8991q.6109 1.0519 1.1709 2.1319.5591 1.0801 1.0641 2.1871.5059 1.106.956 2.236.4509 1.13.846 2.281.395 1.151.7329 2.319.338 1.169.618 2.353.28 1.183.5021 2.3789.2219 1.196.386 2.402.1629 1.205.2669 2.4171.1031 1.212.1481 2.428.044 1.216.0289 2.432-.015 1.2169-.0899 2.4309-.0751 1.2141-.2091 2.4231-.1339 1.209-.3269 2.4099-.1941 1.201-.4451 2.3921-.252 1.19-.5619 2.3659c-3.2681 12.6971-12.5791 23.888-23.7991 30.4261q-1.0379.601-2.1049 1.1499-1.0661.549-2.1591 1.044-1.0919.4961-2.207.9361-1.116.4409-2.252.826-1.136.385-2.29.7139-1.153.328-2.3219.599-1.1681.271-2.349.4831-1.1801.2129-2.37.367-1.1901.154-2.385.2489-1.1961.0951-2.395.1311-1.199.035-2.3981.0119-1.199-.0239-2.396-.1069-1.1969-.0831-2.388-.225-1.191-.1421-2.373-.343-1.183-.201-2.3539-.4601-1.1711-.2589-2.328-.576c-12.2401-3.3579-23.8721-11.737-30.3141-22.822-.625-1.0749-1.0609-2.1839-1.5229-3.3329-1.1221-2.794-2.641-5.619-3.4701-8.4951-2.933-10.1639-2.0509-22.1429 1.941-31.8609q.4671-1.1531.9911-2.281.5239-1.1291 1.104-2.229.58-1.1011 1.2139-2.172.634-1.0701 1.3201-2.108.686-1.0371 1.4239-2.039.7371-1.002 1.5231-1.9671.786-.9639 1.62-1.8869.833-.924 1.7109-1.8051.8781-.881 1.8001-1.717.921-.8369 1.8819-1.6259.9621-.789 1.9621-1.5301 1-.74 2.035-1.43 1.035-.6889 2.104-1.3259 1.068-.638 2.167-1.221 1.099-.5831 2.2259-1.11 1.126-.5281 2.2781-.9991c2.773-1.1359 5.642-1.984 8.5139-2.8259.468-11.886.1801-23.863.193-35.7621.0081-8.4129.969-18.032-.73-26.2549-.8029-3.8861-2.3029-6.833-4.971-9.7871-5.5929-6.1909-11.753-7.0799-19.6179-7.3219-18.8641-.5821-38.001.149-56.8891.162-23.1119.0169-46.354-.6261-69.448-.122l.026 147.7609.056 45.5541c.0411 7.7039.914 16.645-.2089 24.185 14.4569 4.293 26.034 11.049 33.505 24.6749 6.162 11.2381 8.128 24.9161 4.451 37.2901-3.909 13.1559-12.5411 24.2909-24.7461 30.7409q-1.0769.5801-2.1809 1.1001-1.1041.53-2.233 1-1.129.47-2.28.8799-1.152.4101-2.3221.77-1.17.3501-2.357.6501-1.1869.29-2.3859.5299-1.2001.2301-2.41.4101-1.2111.17-2.4281.29-1.2169.1099-2.439.1599-1.2209.0601-2.444.0501-1.223-.01-2.4439-.08-1.2201-.07-2.4361-.2001-1.216-.13-2.424-.32-1.2069-.19-2.404-.44-1.197-.25-2.38-.56-1.182-.31-2.3479-.68-1.1971-.38-2.373-.82-1.176-.43-2.3291-.93-1.153-.5-2.2799-1.0499-1.1261-.55-2.224-1.16-1.098-.6101-2.1651-1.27-1.0659-.6601-2.098-1.37-1.032-.7201-2.027-1.4801-.995-.7699-1.951-1.5799-.9559-.81-1.871-1.6701-.9139-.86-1.7839-1.7679-.8711-.9041-1.6951-1.8501-.824-.947-1.6-1.9329-.776-.9861-1.5019-2.01-.726-1.0231-1.401-2.082-.6741-1.0581-1.2951-2.1491-.62-1.091-1.1859-2.211c-5.774-11.4439-6.682-26.6269-2.503-38.7309 4.307-12.474 14.7419-23.049 26.5229-28.6831 3.257-1.557 6.7091-2.7779 10.0841-4.052 1.146-35.234.271-70.68.271-105.9409l-.0011-80.001.156-31.015c-13.375.5919-26.9699.044-40.3739.0039-17.263-.0509-34.55.3031-51.8091.1311-11.283-.112-32.7979-1.249-42.924.648-4.3369.8119-8.253 3.4029-11.185 6.6399-2.479 2.7381-3.8349 5.737-4.5819 9.333-1.6018 7.711-.8283 16.766-.7967 24.6131l.0968 37.9029c11.2259 1.6791 22.7328 9.4671 29.4698 18.4701q.752.9909 1.453 2.019.7011 1.028 1.3501 2.09.648 1.061 1.2429 2.154.594 1.0929 1.133 2.2149.539 1.1211 1.0201 2.268.482 1.1481.906 2.3171.4229 1.1699.787 2.3599.3649 1.19.669 2.396.3029 1.2071.546 2.427.243 1.2201.4249 2.451.181 1.231.3001 2.4691.12 1.238.177 2.4809.057 1.2431.0509 2.487-.006 1.245-.074 2.487-.0679 1.242-.1979 2.479-.1311 1.2381-.323 2.4671c-2.0531 13.8-9.4031 25.029-20.654 33.2209-10.1451 7.3861-23.5047 10.4281-35.9053 8.419-13.3989-2.172-25.0087-9.253-32.9508-20.297q-.7023-.9769-1.3563-1.9859-.654-1.01-1.2582-2.0501-.604-1.0409-1.1568-2.1089-.5526-1.0681-1.0526-2.163-.5002-1.094-.9464-2.211-.4461-1.117-.8374-2.2541-.3913-1.138-.7269-2.2929-.3355-1.1551-.6143-2.326-.2788-1.1701-.5003-2.352-.2215-1.1831-.3852-2.374-.1638-1.1921-.2694-2.3901-.1054-1.1989-.1526-2.401-.047-1.2019-.0354-2.4049.0114-1.203.0815-2.403.07-1.201.1984-2.398.1285-1.196.3149-2.384c2.109-12.619 9.1046-25.083 19.6245-32.5501 5.8554-4.1559 12.6006-6.8009 19.56-8.4129l-.1861-44.313c.0976-8.331-.5233-15.875 1.6198-24.1151q.3307-1.3.7463-2.576.4157-1.276.9145-2.5219.4987-1.245 1.0783-2.456.5797-1.2101 1.2378-2.3791.658-1.169 1.3917-2.2929.7336-1.1231 1.5397-2.1961.8059-1.073 1.6809-2.0899.8748-1.018 1.8148-1.9751c9.3265-9.5569 20.8249-12.4679 33.8799-12.5169l80.8499.0299c14.8731-.013 30.1961-.7649 45.021.0221-.437-5.5201-.0639-10.987.027-16.511.121-7.4051.0061-14.87.01-22.283l-.324-52.7801c-5.0109-.211-9.8889-.128-14.883.3401-5.0039 14.862-12.283 26.526-26.721 33.786-11.617 5.841-24.591 7.109-36.9749 2.893-13.0761-4.451-23.8091-13.0381-29.8921-25.6761-5.424-11.2659-6.5869-25.7879-2.3759-37.635q.4309-1.1989.9209-2.3759.49-1.177 1.038-2.328.547-1.151 1.151-2.274.604-1.122 1.2621-2.214.659-1.091 1.37-2.148.7119-1.058 1.4749-2.0791.763-1.021 1.5751-2.003.8129-.982 1.6729-1.9229.8601-.941 1.7661-1.838.9049-.897 1.854-1.748.949-.851 1.938-1.6551.99-.8029 2.0179-1.5559 1.028-.7541 2.0921-1.456 1.0639-.701 2.1619-1.3501 1.0981-.648 2.2261-1.2409 1.1279-.593 2.284-1.13c11.7899-5.456 25.828-5.661 37.9409-1.125q1.1471.429 2.2701.9149 1.1239.485 2.2229 1.026 1.098.5411 2.168 1.136 1.07.5951 2.1091 1.242 1.039.648 2.0449 1.346 1.005.698 1.975 1.446.97.747 1.901 1.5421.931.795 1.822 1.6349.89.8401 1.7381 1.7231.847.884 1.6499 1.8079.8031.924 1.5581 1.888.756.963 1.4629 1.9621.7071 1 1.3631 2.034.6559 1.0329 1.2599 2.0979.604 1.065 1.155 2.159.55 1.093 1.045 2.213c1.4101 3.203 2.468 6.6291 3.554 9.9541 16.7781 1.021 33.72-.211 50.533.3509 3.9561-14.2959 10.562-25.6819 23.827-33.25 4.7071-2.6859 9.6601-4.073 14.869-5.4469-.406-11.359-1.2559-43.97 1.173-53.1501 1.731-6.5409 5.463-12.9319 10.0431-17.8809 7.8789-8.514 18.13-13.025 29.669-13.362 34.051-.995 68.3139.0709 102.3909-.108 9.427-.049 19.05.4499 28.4521-.027.3929-6.9841-.0021-13.951.057-20.938l-.2321-60.4901c-9.1729-.7819-26.821-.5799-36.0599.2351-5.9821 15.874-13.2211 27.759-29.306 34.969q-1.11.4939-2.2431.932-1.1329.438-2.287.819-1.1529.38-2.3249.703-1.171.323-2.3571.586-1.186.2639-2.3829.468-1.198.204-2.4041.3479-1.206.1451-2.4179.228-1.2121.0841-2.427.1071-1.214.0229-2.4291-.015-1.2139-.037-2.4249-.136-1.2111-.0981-2.4151-.2571-1.2049-.1579-2.3999-.3769-1.195-.2181-2.3771-.497-1.1829-.278-2.3499-.614-1.167-.337-2.3161-.7321-1.149-.3939-2.2769-.8459c-11.8561-4.622-22.0651-14.101-27.211-25.7961-5.1561-11.716-6.0441-26.224-1.1901-38.199q.4791-1.194 1.016-2.3639.538-1.169 1.1341-2.309.5949-1.1411 1.2459-2.251.652-1.1101 1.3581-2.185.7059-1.0761 1.4649-2.1151.758-1.0399 1.568-2.0399.81-1 1.668-1.9591.858-.958 1.764-1.8729.9051-.914 1.855-1.7831.9491-.8679 1.9411-1.6879.9919-.8201 2.0229-1.589 1.0321-.7701 2.1001-1.487 1.069-.717 2.1719-1.38 1.102-.6621 2.237-1.2691 1.1351-.6069 2.298-1.1569 1.1641-.5501 2.353-1.041c11.829-4.909 26.073-4.43 37.803.5039q1.115.4771 2.205 1.008 1.0901.53 2.1531 1.1141 1.0629.583 2.0959 1.2179 1.0341.634 2.035 1.319 1 .6841 1.9671 1.4171.9659.732 1.8949 1.511.9291.7789 1.8191 1.603.89.8229 1.739 1.6889.849.866 1.6539 1.7731.8051.906 1.5651 1.851.761.9449 1.4729 1.926.7131.981 1.3771 1.995.6649 1.0149 1.2779 2.06.614 1.0459 1.176 2.121.562 1.074 1.07 2.1749.509 1.1011.9631 2.2251c1.0969 2.741 2.0089 5.5589 3.1389 8.2839 11.95.904 24.367.4 36.367.4121-.038-18.4991.737-38.173-.3889-56.505-5.9051-1.0761-11.9811-1.965-17.7731-3.5411q-2.3309-.6199-4.632-1.3429-2.3-.7221-4.567-1.546-2.267-.824-4.4939-1.748-2.228-.9241-4.4131-1.9451-2.185-1.022-4.322-2.1389-2.137-1.117-4.223-2.328-2.085-1.211-4.1149-2.514-2.03-1.302-4-2.693-1.9701-1.3911-3.8771-2.868-1.906-1.477-3.7459-3.037-1.839-1.56-3.6071-3.2-1.7679-1.64-3.462-3.357-1.694-1.7171-3.31-3.507-1.6159-1.79-3.151-3.65-1.535-1.861-2.9859-3.787-1.4511-1.9261-2.8151-3.915c-5.6749-8.238-18.203-30.658-16.031-40.654.567-2.613 2.1071-5.179 4.4501-6.5621.9979-.5889 2.087-1.056 3.146-1.5259-1.713-5.867-.926-13.47-.7351-19.569 1.33.053 2.7401.156 4.055-.0731 2.7591-.4809 5.421-2.3809 6.8521-4.7699 1.3659-2.278 1.7009-4.96 1.011-7.514-1.0121-3.7441-3.375-5.492-6.646-7.2571q3.5529-9.1779 8.011-17.9519c-2.7571-2.603-4.2481-4.565-5.464-8.248z" fill="#4f4f4f"/>
    <path d="M143.15519 537.72504c6.6739-.5579 12.8979.1871 18.816 3.5351q.6499.3709 1.2799.774.6311.403 1.2401.838.6089.435 1.196.899.586.4649 1.148.9589.563.4941 1.099 1.0151.537.5219 1.047 1.07.51.547.991 1.12.4809.573.933 1.1699.4519.5961.873 1.2151.422.618.8109 1.2569.3901.6391.7461 1.297.357.6581.68 1.333.323.6751.612 1.365.289.6911.542 1.395.2539.704.471 1.42.218.716.3989 1.442.1781.7201.321 1.4491.143.7279.2491 1.462.107.734.177 1.473.07.7389.104 1.48.0329.7409.031 1.4829-.003.742-.0431 1.4831-.039.7409-.115 1.479-.0759.739-.1879 1.472-.112.734-.2601 1.461-.148.7269-.3319 1.4459-.184.719-.403 1.4281-.219.709-.472 1.406-.254.6969-.542 1.381-.2871.684-.608 1.3529-.321.669-.675 1.3221-.354.6519-.739 1.286c-4.521 7.357-11.336 11.4619-19.572 13.361-7.0911 1.2209-14.327.178-20.5731-3.5031q-.641-.3789-1.2619-.7899-.62-.4111-1.2201-.853-.599-.4411-1.1759-.913-.576-.471-1.128-.971-.552-.4991-1.078-1.026-.526-.527-1.025-1.0801-.4991-.552-.969-1.1289-.471-.578-.912-1.1781-.44-.5999-.8501-1.2209-.4099-.622-.789-1.263-.378-.6411-.7229-1.301-.346-.659-.658-1.3351-.3111-.677-.589-1.3679-.277-.69-.5201-1.394-.242-.705-.448-1.4201-.207-.7149-.377-1.4399-.172-.7271-.3069-1.463-.135-.7351-.233-1.476-.0981-.7411-.159-1.4861-.061-.745-.084-1.492-.024-.7469-.0091-1.4939.014-.7481.066-1.4931.051-.7459.14-1.4879.089-.742.2151-1.479.127-.737.289-1.466.1629-.73.3629-1.4501.1991-.721.4341-1.43.2359-.7099.5059-1.4069.271-.696.5761-1.3791.3049-.682.644-1.3479.339-.666.711-1.315.3719-.648.776-1.2771c4.8969-7.4809 11.9569-11.469 20.552-13.201zM368.29807 312.7191c6.8361-.458 13.099.417 19.0431 4.036q.64.394 1.26.82.6189.427 1.217.883.597.457 1.17.944.574.486 1.122 1.001.548.514 1.07 1.056.522.541 1.015 1.109.4939.567.958 1.158.465.591.899 1.205.434.614.836 1.25.403.635.773 1.289.37.655.707 1.327.3359.673.6379 1.361.3031.689.5701 1.392.267.703.4979 1.418.2321.715.427 1.442.1951.726.3531 1.461.154.722.2719 1.45.1191.728.2011 1.461.082.734.1269 1.47.0461.737.0551 1.474.009.738-.0181 1.476-.0279.737-.0919 1.472-.064.735-.164 1.466-.1.731-.237 1.456-.136.725-.308 1.443-.172.717-.38 1.425-.207.708-.449 1.405-.242.697-.519 1.381-.276.685-.5861 1.354-.3099.67-.6529 1.323-.343.653-.718 1.289-.374.636-.7801 1.252c-4.8829 7.423-11.8469 11.124-20.3029 12.891-7.461.969-15.2-.673-21.365-5.059q-.598-.425-1.173-.879-.576-.453-1.129-.935-.553-.482-1.081-.99-.529-.508-1.031-1.042-.503-.534-.979-1.092-.476-.557-.9231-1.138-.448-.581-.8669-1.183-.418-.601-.807-1.223-.388-.622-.746-1.262-.357-.641-.682-1.298-.326-.657-.618-1.329-.293-.672-.552-1.358-.2591-.686-.484-1.384-.225-.697-.415-1.405-.191-.709-.346-1.425-.1551-.717-.2751-1.44-.1199-.727-.2039-1.458-.084-.732-.131-1.467-.047-.735-.058-1.471-.012-.736.014-1.472.0249-.736.087-1.47.062-.734.16-1.464.098-.73.232-1.454.1349-.724.304-1.441.17-.716.375-1.424.205-.707.4449-1.403.24-.696.5141-1.38.274-.684.582-1.353.307-.669.648-1.322.34-.653.712-1.288.3719-.636.776-1.252.403-.616.8359-1.212c4.9891-6.842 11.9591-10.456 20.177-11.867zM48.9688 787.2841c6.9644.091 13.5513 1.997 19.0653 6.338q.576.458 1.1291.944.552.485 1.08.998.5279.512 1.0299 1.05.5021.538.977 1.1.475.562.922 1.147.4461.585.8631 1.191.417.606.8039 1.232.386.626.741 1.271.3561.644.6791 1.305.323.661.612 1.338.2899.676.5459 1.366.2561.69.478 1.391.222.702.409 1.413.186.712.3381 1.432.151.72.2669 1.447.115.727.195 1.458.08.737.123 1.477.043.74.05 1.481.006.741-.025 1.482-.031.741-.098 1.479-.068.738-.173 1.472-.104.734-.2449 1.461-.141.728-.318 1.448-.177.72-.3901 1.43-.213.71-.461 1.408-.2479.699-.53 1.384-.2829.685-.599 1.356-.316.67-.6659 1.324-.349.654-.7311 1.289-.3809.636-.794 1.251-.413.616-.856 1.21-.443.595-.915 1.166c-5.7379 6.91-13.1226 9.83-21.8667 10.63-7.2337-.313-13.2598-1.662-19.0922-6.223q-.586-.457-1.1484-.943-.5622-.486-1.099-1-.5369-.514-1.047-1.054-.5101-.541-.9921-1.107-.482-.565-.9349-1.155-.4528-.589-.8751-1.2-.4223-.612-.8131-1.244-.3907-.632-.7489-1.284-.3583-.651-.683-1.319-.3247-.669-.6151-1.353-.2905-.684-.5459-1.382-.2554-.698-.4751-1.408-.2196-.71-.4031-1.43-.1834-.72-.33-1.449-.1466-.728-.2561-1.463-.1097-.735-.1817-1.475-.0777-.731-.1191-1.466-.0412-.734-.046-1.469-.0047-.736.0271-1.471.0318-.735.0999-1.467.0683-.732.1728-1.46.1045-.728.2451-1.45.1405-.722.3168-1.436.1762-.714.3877-1.419.2116-.704.4577-1.397.2462-.693.5266-1.373.2802-.68.594-1.345.3137-.665.6601-1.314.3464-.649.7246-1.28.3783-.631.7873-1.242.409-.611.8479-1.201.4389-.59.9066-1.158c5.7826-6.992 13.2182-9.887 22.011-10.732zm342.99732.01697c7.248-.06 14.171 1.9561 19.854 6.548q.568.462 1.112.952.5451.4901 1.064 1.007.52.516 1.013 1.057.493.542.959 1.107.466.565.903 1.153.438.587.845 1.195.408.6091.785 1.237.378.627.723 1.2731.346.6459.659 1.3079.3131.662.5941 1.339.2799.676.526 1.3661.2459.69.4579 1.3909.212.701.389 1.412.177.7101.319 1.429.141.719.247 1.443.106.725.176 1.454.074.729.112 1.46.038.731.04 1.4631.001.7329-.033 1.4639-.035.732-.105 1.46-.071.729-.178 1.454-.106.724-.249 1.443-.142.718-.319 1.428-.178.711-.391 1.411-.212.701-.459 1.39-.247.69-.528 1.366-.2809.676-.595 1.338-.314.661-.6599 1.307-.3461.645-.724 1.272-.3771.6281-.7861 1.236-.408.608-.846 1.195-.438.586-.904 1.151c-5.6 6.756-12.989 9.847-21.539 10.605-6.749.163-13.309-1.62-18.766-5.646q-.602-.448-1.181-.9259-.579-.4781-1.133-.9841-.554-.506-1.082-1.04-.528-.533-1.028-1.093-.501-.559-.972-1.143-.472-.584-.9139-1.191-.4411-.607-.8521-1.235-.41-.629-.788-1.277-.379-.648-.724-1.315-.345-.666-.656-1.349-.311-.684-.587-1.381-.277-.698-.5179-1.409-.2401-.711-.4451-1.433-.205-.722-.373-1.454-.168-.731-.299-1.47-.131-.7389-.225-1.484-.0899-.733-.144-1.469-.054-.737-.0709-1.475-.0171-.738.0019-1.477.02-.738.0761-1.474.0559-.736.1479-1.469.093-.732.221-1.459.129-.728.293-1.447.165-.72.365-1.431.2-.711.435-1.411.235-.7.504-1.387.269-.688.572-1.361.303-.674.64-1.331.336-.658.704-1.298.3681-.64.768-1.261.399-.621.8291-1.221.4299-.601.8889-1.179c5.616-7.054 13.065-10.175 21.85-11.134z" fill="#71c2e7"/>
    <path d="M291.6022 537.72706c6.563-.7899 13.2389.407 18.9549 3.7751q.638.378 1.256.7879.6181.4101 1.215.8501.597.44 1.171.9099.574.469 1.124.967.5501.4981 1.075 1.022.524.525 1.021 1.0751.498.5499.967 1.125.469.5739.9091 1.1709.4399.5971.849 1.216.4099.6181.7879 1.2561.378.6389.7231 1.2949.3459.6561.6579 1.329.312.6731.5911 1.36.2779.6881.521 1.388.2439.7011.4519 1.413.2081.712.38 1.433.172.727.3091 1.463.136.735.235 1.476.099.741.161 1.486.062.7451.0869 1.492.025.747.013 1.495-.0119.7481-.062 1.494-.0489.7461-.136 1.4881-.086.7429-.2099 1.4799-.1231.738-.2831 1.4681-.16.7299-.3569 1.4519-.1961.721-.4281 1.432-.232.711-.4989 1.409-.2671.698-.5691 1.3821-.3009.6839-.636 1.3529-.3359.668-.704 1.319-.368.65-.7679 1.282c-4.802 7.501-11.797 11.458-20.3221 13.2121-7.034.904-14.0949-.2921-20.1779-4.0771q-.6341-.396-1.2471-.823-.6129-.4279-1.2029-.885-.5911-.458-1.1581-.945-.5659-.487-1.108-1.002-.541-.516-1.056-1.0569-.5139-.5421-1.0009-1.109-.4861-.5671-.9431-1.1581-.4579-.591-.884-1.205-.427-.613-.823-1.247-.3949-.634-.757-1.288-.363-.653-.692-1.324-.33-.67-.624-1.357-.295-.6869-.555-1.3869-.26-.701-.484-1.414-.224-.7131-.411-1.4361-.188-.7229-.339-1.4549-.15-.7271-.263-1.4601-.1139-.733-.1909-1.471-.0771-.7379-.1181-1.479-.0409-.7409-.045-1.4829-.0039-.742.029-1.4831.032-.742.1021-1.4809.0689-.7381.1739-1.4731.106-.734.247-1.463.1421-.7279.3191-1.4489.1779-.7201.391-1.4311.213-.711.4599-1.4099.2481-.7001.53-1.386.282-.687.597-1.3581.315-.672.6631-1.327.3489-.6559.729-1.293.38-.637.791-1.255c4.9099-7.271 12.0869-11.167 20.562-12.685zm267.66588-224.99492c6.8931-.703 13.7241.622 19.6061 4.391q.6271.4039 1.234.8389.6059.4351 1.1899.9001.583.465 1.1431.9589.5601.4941 1.094 1.0151.5339.521 1.041 1.069.5079.547.9869 1.119.479.5719.9291 1.168.45.595.8689 1.212.4201.618.8081 1.255.387.638.7429 1.294.355.6559.677 1.33.3221.673.6102 1.3609.2878.689.5408 1.3911.2531.702.4701 1.416.2179.7139.399 1.4379.181.724.3259 1.4561.1411.722.2461 1.451.105.728.173 1.461.0689.733.1019 1.4679.0331.7361.029 1.471-.0029.737-.0429 1.4711-.0401.7349-.116 1.467-.076.733-.187 1.46-.1121.7269-.26 1.448-.148.721-.3301 1.4339-.1829.7131-.4009 1.4161-.218.703-.4701 1.395-.253.691-.5389 1.3689-.285.6791-.605 1.3421-.3191.6629-.67 1.3099-.351.6471-.734 1.275-.3831.629-.7961 1.238c-4.9359 7.2401-11.917 10.9661-20.302 12.5831q-.681.092-1.3659.1529-.685.061-1.373.091-.687.03-1.374.0281-.688-.0021-1.375-.0361-.687-.0329-1.3711-.0979-.6849-.065-1.3659-.1611-.6809-.0959-1.357-.2229-.676-.1271-1.3451-.285-.6689-.158-1.3309-.3461-.661-.189-1.313-.4079-.6521-.218-1.293-.4661-.642-.2479-1.2709-.526-.6292-.277-1.2452-.583-.6159-.306-1.218-.6389-.6009-.3341-1.186-.695-.586-.361-1.1539-.7481-.601-.4189-1.1801-.8669-.5789-.448-1.135-.924-.5569-.4751-1.0889-.978-.532-.503-1.039-1.0321-.5071-.5279-.9871-1.0809-.48-.5531-.9319-1.129-.4531-.5751-.876-1.1731-.4231-.5969-.8171-1.2149-.3929-.6171-.7549-1.254-.362-.636-.6931-1.289-.33-.654-.6279-1.323-.298-.6691-.563-1.3511-.2641-.6829-.495-1.3779-.2301-.6951-.426-1.401-.196-.705-.3571-1.4191-.1609-.715-.2859-1.436-.126-.7259-.217-1.4579-.0901-.7311-.145-1.467-.054-.735-.0721-1.472-.0179-.737.001-1.474.0181-.737.073-1.472.0541-.735.145-1.4661.0911-.7319.218-1.458.127-.7259.2891-1.4449.163-.7191.361-1.4291.197-.7109.43-1.41.232-.6999.499-1.3869.2669-.6871.5669-1.36.3011-.674.6341-1.3311.333-.6579.698-1.2979.365-.6411.761-1.2621.3969-.6219.823-1.2229c4.976-6.9761 12.0649-10.666 20.3669-12.068zM216.42616 926.20413c6.885-.769 13.4499-.061 19.577 3.387q.632.3559 1.245.743.614.387 1.207.8029.594.4171 1.167.862.5719.445 1.122.9181.55.473 1.076.9719.526.4991 1.027 1.0231.501.525.976 1.073.474.549.921 1.12.448.5709.866 1.163.419.592.807 1.2049.389.612.748 1.242.358.6311.6849 1.2781.3271.648.6221 1.31.294.663.556 1.3389.262.677.49 1.3651.229.688.423 1.387.2009.729.365 1.468.1639.7379.29 1.484.127.746.215 1.497.089.751.14 1.506.051.755.064 1.511.012.7559-.013 1.512-.026.756-.0891 1.51-.0639.754-.1649 1.504-.1011.749-.24 1.4929-.139.7431-.316 1.479-.176.7351-.389 1.461-.2131.7261-.4631 1.44-.2489.714-.5339 1.4151-.285.6999-.605 1.386-.32.685-.674 1.354-.355.6679-.742 1.318c-4.462 7.547-11.559 11.731-19.8931 13.7409q-.6649.1261-1.3339.221-.67.0951-1.3431.159-.6739.0641-1.349.0981-.6759.033-1.3519.036-.676.002-1.352-.026-.676-.028-1.35-.088-.673-.0591-1.344-.149-.6701-.0901-1.336-.211-.665-.12-1.325-.271-.659-.151-1.3111-.3321-.651-.1809-1.2939-.3909-.643-.211-1.275-.451-.633-.239-1.2541-.508-.6199-.268-1.2279-.565-.608-.2961-1.202-.62-.594-.3241-1.172-.675-.625-.383-1.23-.796-.604-.414-1.188-.857-.584-.443-1.145-.914-.561-.471-1.098-.9701-.537-.4979-1.048-1.0229-.5121-.5241-.997-1.073-.485-.5501-.9421-1.122-.4569-.573-.8849-1.167-.428-.595-.826-1.21-.399-.615-.766-1.2491-.367-.6339-.702-1.2849-.336-.651-.638-1.3191-.303-.667-.572-1.3479-.27-.682-.505-1.3761-.235-.6939-.435-1.3989-.201-.704-.366-1.418-.168-.719-.3-1.4461-.132-.727-.228-1.4589-.096-.733-.155-1.469-.06-.7361-.083-1.475-.024-.7381-.011-1.476.013-.739.063-1.476.049-.737.135-1.4711.086-.7329.208-1.4619.121-.729.279-1.45.158-.722.351-1.435.193-.713.42-1.4161.228-.7019.491-1.393.262-.69.558-1.367.296-.677.625-1.3379.329-.6621.69-1.306.361-.644.754-1.2701c4.701-7.3809 11.573-11.349 19.901-13.2609zm248.31801-339.96808c6.3049-.3 12.183.7221 17.719 3.9571q.621.3659 1.224.7609.603.396 1.1849.82.583.425 1.1431.8771.561.453 1.1.9329.5379.479 1.052.9841.514.5059 1.002 1.036.489.5299.951 1.083.462.553.896 1.1289.435.5751.84 1.1711.4061.596.782 1.211.376.6149.721 1.247.3459.633.6589 1.282.3141.6489.5961 1.312.282.664.531 1.3399.2489.677.464 1.364.216.688.3969 1.386.1911.7301.346 1.468.154.7391.271 1.485.1171.745.196 1.495.0791.7511.1211 1.5041.041.7539.044 1.5079.004.7551-.031 1.509-.0349.7531-.1079 1.5041-.073.7509-.1831 1.4979-.111.7461-.2591 1.4861-.1479.7399-.333 1.4719-.1849.7311-.407 1.4521-.2209.722-.479 1.4309-.2579.709-.552 1.404-.2929.695-.6209 1.375-.328.679-.689 1.3421-.3619.662-.757 1.305c-4.843 7.797-11.8969 11.695-20.66 13.701-7.3041.6699-14.113-.368-20.38-4.386q-.632-.404-1.243-.839-.61-.435-1.198-.901-.5881-.466-1.151-.961-.564-.4951-1.101-1.018-.538-.523-1.048-1.073-.51-.5501-.9911-1.125-.4819-.575-.9339-1.174-.451-.5981-.872-1.219-.421-.6211-.8091-1.263-.3889-.641-.7439-1.302-.356-.6601-.677-1.338-.321-.677-.608-1.37-.286-.693-.537-1.4001-.251-.7069-.466-1.4259-.215-.718-.393-1.4471-.177-.728-.318-1.465-.14-.7359-.243-1.4779-.103-.743-.169-1.4891-.066-.7459-.094-1.495-.028-.749-.019-1.4979.009-.75.056-1.497.046-.748.13-1.493.084-.745.205-1.484.121-.74.279-1.472.158-.7331.352-1.4561.1939-.724.425-1.4369.23-.713.495-1.414.266-.7011.5659-1.3871.3011-.687.635-1.3569.3341-.6711.7021-1.324.367-.653.7669-1.2871.3991-.6339.8301-1.247c5.307-7.448 12.645-10.897 21.392-12.31z" fill="#fc5d3f"/>
    <path d="M381.66612 122.5521c3.388.922 6.745 1.611 9.9361-.339 4.2439-2.592 17.1109-24.922 21.2359-30.678 16.605-23.1675 34.618-46.5114 54.614-66.8373 27.954 30.7517 90.917 101.8583 89.0201 145.6563q-.052 1.102-.1321 2.202-.079 1.1-.185 2.197-.107 1.098-.241 2.193-.133 1.094-.294 2.185-.1599 1.092-.3469 2.178-.188 1.087-.4021 2.169-.214 1.082-.454 2.158-.241 1.076-.5079 2.146-.2671 1.07-.5611 2.133-.2929 1.064-.613 2.119-.319 1.056-.665 2.103-.345 1.047-.716 2.086-.3719 1.038-.7679 2.067-.397 1.029-.8191 2.048-.4219 1.019-.8689 2.027-.447 1.008-.9191 2.005-.4711.997-.9669 1.982-.4961.985-1.0171 1.958-.52.972-1.064 1.931-.5439.96-1.111 1.905-.5679.946-1.159 1.877-.5901.931-1.204 1.848-.613.916-1.249 1.817-.636.901-1.294 1.787-.658.885-1.337 1.753-.6799.869-1.3811 1.721-.6999.851-1.4218 1.685-.7211.834-1.4631 1.65-.742.816-1.504 1.614-.7619.797-1.543 1.576-.781.778-1.581 1.537-.8001.759-1.6189 1.498-1.2841 1.157-2.6111 2.264-1.3269 1.107-2.696 2.162-1.3689 1.055-2.778 2.056-1.409 1.001-2.855 1.947-1.446.946-2.9281 1.836-1.4819.89-2.9968 1.721-1.5151.832-3.061 1.605-1.5462.772-3.1201 1.485-1.575.712-3.1761 1.363-1.6008.651-3.2258 1.24-1.625.589-3.271 1.114-1.6471.526-3.312.988-1.666.461-3.3482.858-1.6818.397-3.3779.729-1.696.332-3.404.598-1.7071.266-3.424.466l-.005-27.299c10.7.088 21.2981.806 29.707-7.177 6.835-6.487 7.9519-14.985 7.993-23.855l-.0779-55.224c-.01-7.738.885-16.3.0039-23.911-.294-2.53-1.0769-5.118-2.896-6.979-1.84-1.882-4.5359-2.929-7.156-2.87q-.501.007-.999.064-.498.058-.988.164-.489.107-.9659.262-.477.155-.9351.357-.4589.202-.895.449-.437.247-.8459.536-.4091.289-.7881.618-.3779.328-.7219.693c-1.4211 1.521-2.198 3.359-2.533 5.399-1.2101 7.389-.3711 15.835-.3511 23.357l.117 46.667c.008 4.905 1.133 13.582-.81 18.046-1.135 2.606-4.0699 3.342-6.671 3.479-3.364.177-6.818-.021-10.188-.092l-.028-45.535c0-5.94.944-13.411-.128-19.162-.406-2.178-1.427-4.237-3.052-5.761-2.056-1.928-4.8459-2.814-7.64-2.546-2.951.282-5.5589 1.834-7.326 4.199-3.222 4.313-1.7959 24.403-1.8389 30.666-3.7111.041-13.259 1.102-15.9301-1.715-6.5889-6.95 5.618-50.623-9.146-53.126-2.552-.433-6.176.285-8.296 1.788-2.7099 1.921-3.733 4.567-4.151 7.759-.797 6.082-.697 39.048.5401 44.772.8359 3.871 2.3919 7.48 4.8399 10.611 4.537 5.803 11.31 8.991 18.538 9.721 4.4871.454 9.114.284 13.6221.255l-.0231 65.399c-25.448-3.981-46.777-15.153-62.241-36.2-4.832-6.575-8.711-14.327-11.457-21.999-1.463-4.088-2.553-9.74-4.936-13.325-1.3169-1.98-4.168-3.104-6.413-3.498-1.087-.19-2.189-.225-3.2889-.241-1.7131-5.867-.9261-13.47-.7351-19.569 1.33.053 2.7401.156 4.055-.073 2.759-.481 5.421-2.381 6.852-4.77 1.366-2.278 1.701-4.96 1.011-7.514-1.012-3.744-3.375-5.492-6.646-7.257q3.553-9.178 8.011-17.952z" fill="#9fa"/>
</svg>